<mxfile host="" modified="2020-07-08T06:33:17.056Z" agent="5.0 (X11; Linux x86_64) AppleWebKit/537.36 (KHTML, like Gecko) Code/1.46.1 Chrome/78.0.3904.130 Electron/7.3.1 Safari/537.36" etag="O-44H0CD_jTk-yRf6Q2e" version="13.1.3">
    <diagram id="xOgkuKXMtd71amgxeQ_m" name="Page-1">
        <mxGraphModel dx="1306" dy="780" grid="1" gridSize="10" guides="1" tooltips="1" connect="1" arrows="1" fold="1" page="0" pageScale="1" pageWidth="850" pageHeight="1100" background="none" math="0" shadow="0">
            <root>
                <mxCell id="0"/>
                <mxCell id="1" parent="0"/>
                <mxCell id="144" value="" style="rounded=0;whiteSpace=wrap;html=1;" parent="1" vertex="1">
                    <mxGeometry x="450" y="400" width="270" height="100" as="geometry"/>
                </mxCell>
                <mxCell id="2" value="nova-api" style="shape=umlLifeline;perimeter=lifelinePerimeter;whiteSpace=wrap;html=1;container=1;collapsible=0;recursiveResize=0;outlineConnect=0;" parent="1" vertex="1">
                    <mxGeometry x="-50" y="40" width="100" height="640" as="geometry"/>
                </mxCell>
                <mxCell id="3" value="1" style="html=1;points=[];perimeter=orthogonalPerimeter;" parent="2" vertex="1">
                    <mxGeometry x="45" y="90" width="10" height="220" as="geometry"/>
                </mxCell>
                <mxCell id="4" value="http:live_migrate" style="html=1;verticalAlign=bottom;endArrow=block;entryX=0;entryY=0;" parent="2" target="3" edge="1">
                    <mxGeometry relative="1" as="geometry">
                        <mxPoint x="-25" y="90" as="sourcePoint"/>
                    </mxGeometry>
                </mxCell>
                <mxCell id="5" value="http:202" style="html=1;verticalAlign=bottom;endArrow=open;dashed=1;endSize=8;exitX=0;exitY=0.95;" parent="2" source="3" edge="1">
                    <mxGeometry relative="1" as="geometry">
                        <mxPoint x="-25" y="299" as="targetPoint"/>
                    </mxGeometry>
                </mxCell>
                <mxCell id="64" value="11" style="html=1;points=[];perimeter=orthogonalPerimeter;" parent="2" vertex="1">
                    <mxGeometry x="45" y="470" width="10" height="60" as="geometry"/>
                </mxCell>
                <mxCell id="66" value="http:202" style="html=1;verticalAlign=bottom;endArrow=open;dashed=1;endSize=8;exitX=0.3;exitY=1.017;exitDx=0;exitDy=0;exitPerimeter=0;" parent="2" source="64" edge="1">
                    <mxGeometry relative="1" as="geometry">
                        <mxPoint x="-30" y="530" as="targetPoint"/>
                    </mxGeometry>
                </mxCell>
                <mxCell id="67" value="rpc:cast:live_migration_force_complete" style="html=1;verticalAlign=bottom;startArrow=oval;startFill=1;endArrow=block;startSize=8;entryX=0;entryY=0.36;entryDx=0;entryDy=0;entryPerimeter=0;" parent="2" target="69" edge="1">
                    <mxGeometry width="60" relative="1" as="geometry">
                        <mxPoint x="50" y="490" as="sourcePoint"/>
                        <mxPoint x="110" y="490" as="targetPoint"/>
                    </mxGeometry>
                </mxCell>
                <mxCell id="150" value="13" style="html=1;points=[];perimeter=orthogonalPerimeter;" parent="2" vertex="1">
                    <mxGeometry x="45" y="560" width="10" height="50" as="geometry"/>
                </mxCell>
                <mxCell id="151" value="http:live_migrate_abort" style="html=1;verticalAlign=bottom;endArrow=block;entryX=0;entryY=0;" parent="2" target="150" edge="1">
                    <mxGeometry relative="1" as="geometry">
                        <mxPoint x="-25" y="560" as="sourcePoint"/>
                    </mxGeometry>
                </mxCell>
                <mxCell id="152" value="http:202" style="html=1;verticalAlign=bottom;endArrow=open;dashed=1;endSize=8;exitX=0;exitY=0.95;" parent="2" source="150" edge="1">
                    <mxGeometry relative="1" as="geometry">
                        <mxPoint x="-25" y="608" as="targetPoint"/>
                    </mxGeometry>
                </mxCell>
                <mxCell id="154" value="rpc:cast:live_migration_abort" style="html=1;verticalAlign=bottom;startArrow=oval;startFill=1;endArrow=block;startSize=8;" parent="2" target="11" edge="1">
                    <mxGeometry x="0.0505" y="5" width="60" relative="1" as="geometry">
                        <mxPoint x="55" y="584.5" as="sourcePoint"/>
                        <mxPoint x="115" y="584.5" as="targetPoint"/>
                        <mxPoint y="1" as="offset"/>
                    </mxGeometry>
                </mxCell>
                <mxCell id="6" value="nova-conductor" style="shape=umlLifeline;perimeter=lifelinePerimeter;whiteSpace=wrap;html=1;container=1;collapsible=0;recursiveResize=0;outlineConnect=0;" parent="1" vertex="1">
                    <mxGeometry x="108" y="40" width="100" height="640" as="geometry"/>
                </mxCell>
                <mxCell id="16" value="2" style="html=1;points=[];perimeter=orthogonalPerimeter;" parent="6" vertex="1">
                    <mxGeometry x="45" y="100" width="10" height="180" as="geometry"/>
                </mxCell>
                <mxCell id="10" value="nova-scheduler" style="shape=umlLifeline;perimeter=lifelinePerimeter;whiteSpace=wrap;html=1;container=1;collapsible=0;recursiveResize=0;outlineConnect=0;" parent="1" vertex="1">
                    <mxGeometry x="277" y="40" width="100" height="640" as="geometry"/>
                </mxCell>
                <mxCell id="20" value="3" style="html=1;points=[];perimeter=orthogonalPerimeter;" parent="10" vertex="1">
                    <mxGeometry x="45" y="120" width="10" height="50" as="geometry"/>
                </mxCell>
                <mxCell id="11" value="nova-compute&lt;br&gt;src" style="shape=umlLifeline;perimeter=lifelinePerimeter;whiteSpace=wrap;html=1;container=1;collapsible=0;recursiveResize=0;outlineConnect=0;" parent="1" vertex="1">
                    <mxGeometry x="441" y="40" width="100" height="640" as="geometry"/>
                </mxCell>
                <mxCell id="27" value="5" style="html=1;points=[];perimeter=orthogonalPerimeter;" parent="11" vertex="1">
                    <mxGeometry x="45" y="190" width="10" height="40" as="geometry"/>
                </mxCell>
                <mxCell id="69" value="12" style="html=1;points=[];perimeter=orthogonalPerimeter;" parent="11" vertex="1">
                    <mxGeometry x="45" y="470" width="10" height="50" as="geometry"/>
                </mxCell>
                <mxCell id="29" value="6" style="html=1;points=[];perimeter=orthogonalPerimeter;" parent="11" vertex="1">
                    <mxGeometry x="45" y="260" width="10" height="180" as="geometry"/>
                </mxCell>
                <mxCell id="132" value="rpc:call:pre_live_migration" style="html=1;verticalAlign=bottom;startArrow=oval;startFill=1;endArrow=block;startSize=8;" parent="11" target="12" edge="1">
                    <mxGeometry width="60" relative="1" as="geometry">
                        <mxPoint x="59" y="280" as="sourcePoint"/>
                        <mxPoint x="119" y="280" as="targetPoint"/>
                    </mxGeometry>
                </mxCell>
                <mxCell id="137" value="rpc:call:remove_volume_connection" style="html=1;verticalAlign=bottom;startArrow=oval;startFill=1;endArrow=block;startSize=8;" parent="11" target="12" edge="1">
                    <mxGeometry width="60" relative="1" as="geometry">
                        <mxPoint x="59" y="380" as="sourcePoint"/>
                        <mxPoint x="119" y="380" as="targetPoint"/>
                    </mxGeometry>
                </mxCell>
                <mxCell id="148" value="goto post live migration" style="html=1;verticalAlign=bottom;startArrow=oval;startFill=1;endArrow=block;startSize=8;entryX=0.1;entryY=0.289;entryDx=0;entryDy=0;entryPerimeter=0;" parent="11" target="29" edge="1">
                    <mxGeometry x="0.328" width="60" relative="1" as="geometry">
                        <mxPoint x="46" y="510" as="sourcePoint"/>
                        <mxPoint x="129" y="510" as="targetPoint"/>
                        <Array as="points">
                            <mxPoint x="-41" y="510"/>
                            <mxPoint x="-41" y="312"/>
                        </Array>
                        <mxPoint as="offset"/>
                    </mxGeometry>
                </mxCell>
                <mxCell id="153" value="14" style="html=1;points=[];perimeter=orthogonalPerimeter;" parent="11" vertex="1">
                    <mxGeometry x="45" y="570" width="10" height="35" as="geometry"/>
                </mxCell>
                <mxCell id="12" value="nova-compute&lt;br&gt;dest" style="shape=umlLifeline;perimeter=lifelinePerimeter;whiteSpace=wrap;html=1;container=1;collapsible=0;recursiveResize=0;outlineConnect=0;" parent="1" vertex="1">
                    <mxGeometry x="620" y="40" width="100" height="640" as="geometry"/>
                </mxCell>
                <mxCell id="23" value="4" style="html=1;points=[];perimeter=orthogonalPerimeter;" parent="12" vertex="1">
                    <mxGeometry x="45" y="160" width="10" height="90" as="geometry"/>
                </mxCell>
                <mxCell id="127" value="rpc:call:can_live_migration_at_source" style="html=1;verticalAlign=bottom;startArrow=oval;startFill=1;endArrow=block;startSize=8;" parent="12" target="11" edge="1">
                    <mxGeometry x="0.0619" y="-10" width="60" relative="1" as="geometry">
                        <mxPoint x="40" y="200" as="sourcePoint"/>
                        <mxPoint x="110" y="200" as="targetPoint"/>
                        <mxPoint as="offset"/>
                    </mxGeometry>
                </mxCell>
                <mxCell id="131" value="7" style="html=1;points=[];perimeter=orthogonalPerimeter;" parent="12" vertex="1">
                    <mxGeometry x="45" y="270" width="10" height="40" as="geometry"/>
                </mxCell>
                <mxCell id="134" value="8" style="html=1;points=[];perimeter=orthogonalPerimeter;" parent="12" vertex="1">
                    <mxGeometry x="45" y="320" width="10" height="30" as="geometry"/>
                </mxCell>
                <mxCell id="136" value="9" style="html=1;points=[];perimeter=orthogonalPerimeter;" parent="12" vertex="1">
                    <mxGeometry x="45" y="360" width="10" height="40" as="geometry"/>
                </mxCell>
                <mxCell id="140" value="10" style="html=1;points=[];perimeter=orthogonalPerimeter;" parent="12" vertex="1">
                    <mxGeometry x="45" y="410" width="10" height="40" as="geometry"/>
                </mxCell>
                <mxCell id="18" value="" style="html=1;verticalAlign=bottom;startArrow=oval;startFill=1;endArrow=block;startSize=8;exitX=0.9;exitY=0.213;exitDx=0;exitDy=0;exitPerimeter=0;" parent="1" edge="1">
                    <mxGeometry y="20" width="60" relative="1" as="geometry">
                        <mxPoint x="5" y="147.03999999999996" as="sourcePoint"/>
                        <mxPoint x="158" y="148" as="targetPoint"/>
                        <mxPoint as="offset"/>
                    </mxGeometry>
                </mxCell>
                <mxCell id="19" value="rpc:call:migrate_server" style="edgeLabel;html=1;align=center;verticalAlign=middle;resizable=0;points=[];" parent="18" vertex="1" connectable="0">
                    <mxGeometry x="-0.1662" y="-3" relative="1" as="geometry">
                        <mxPoint y="-20.04" as="offset"/>
                    </mxGeometry>
                </mxCell>
                <mxCell id="21" value="rpc:call:select_destinations" style="html=1;verticalAlign=bottom;startArrow=oval;startFill=1;endArrow=block;startSize=8;exitX=1.3;exitY=0.2;exitDx=0;exitDy=0;exitPerimeter=0;" parent="1" source="16" target="10" edge="1">
                    <mxGeometry x="-0.0059" y="5" width="60" relative="1" as="geometry">
                        <mxPoint x="420" y="400" as="sourcePoint"/>
                        <mxPoint x="480" y="400" as="targetPoint"/>
                        <mxPoint as="offset"/>
                    </mxGeometry>
                </mxCell>
                <mxCell id="22" value="return:hosts" style="html=1;verticalAlign=bottom;endArrow=open;dashed=1;endSize=8;exitX=-0.3;exitY=0.8;exitDx=0;exitDy=0;exitPerimeter=0;" parent="1" source="20" target="6" edge="1">
                    <mxGeometry relative="1" as="geometry">
                        <mxPoint x="470" y="400" as="sourcePoint"/>
                        <mxPoint x="390" y="400" as="targetPoint"/>
                    </mxGeometry>
                </mxCell>
                <mxCell id="24" value="rpc:call:can_live_migration_destination" style="html=1;verticalAlign=bottom;startArrow=oval;startFill=1;endArrow=block;startSize=8;" parent="1" edge="1">
                    <mxGeometry x="0.1033" y="7" width="60" relative="1" as="geometry">
                        <mxPoint x="165" y="217" as="sourcePoint"/>
                        <mxPoint x="670" y="217" as="targetPoint"/>
                        <mxPoint as="offset"/>
                    </mxGeometry>
                </mxCell>
                <mxCell id="91" value="nova-compute&lt;br&gt;destination" style="shape=umlLifeline;perimeter=lifelinePerimeter;whiteSpace=wrap;html=1;container=1;collapsible=0;recursiveResize=0;outlineConnect=0;" parent="1" vertex="1">
                    <mxGeometry x="-50" y="820" width="100" height="300" as="geometry"/>
                </mxCell>
                <mxCell id="94" value="7" style="html=1;points=[];perimeter=orthogonalPerimeter;" parent="91" vertex="1">
                    <mxGeometry x="45" y="50" width="10" height="170" as="geometry"/>
                </mxCell>
                <mxCell id="97" value="http:GET:ports" style="html=1;verticalAlign=bottom;startArrow=oval;startFill=1;endArrow=block;startSize=8;entryX=0.1;entryY=0.113;entryDx=0;entryDy=0;entryPerimeter=0;" parent="91" target="95" edge="1">
                    <mxGeometry width="60" relative="1" as="geometry">
                        <mxPoint x="50" y="90" as="sourcePoint"/>
                        <mxPoint x="110" y="90" as="targetPoint"/>
                    </mxGeometry>
                </mxCell>
                <mxCell id="102" value="http:GET:dhcp_ports" style="html=1;verticalAlign=bottom;startArrow=oval;startFill=1;endArrow=block;startSize=8;entryX=0.1;entryY=0.875;entryDx=0;entryDy=0;entryPerimeter=0;" parent="91" target="95" edge="1">
                    <mxGeometry width="60" relative="1" as="geometry">
                        <mxPoint x="50" y="150" as="sourcePoint"/>
                        <mxPoint x="110" y="150" as="targetPoint"/>
                    </mxGeometry>
                </mxCell>
                <mxCell id="92" value="neutron-server" style="shape=umlLifeline;perimeter=lifelinePerimeter;whiteSpace=wrap;html=1;container=1;collapsible=0;recursiveResize=0;outlineConnect=0;" parent="1" vertex="1">
                    <mxGeometry x="230" y="820" width="107" height="300" as="geometry"/>
                </mxCell>
                <mxCell id="95" value="" style="html=1;points=[];perimeter=orthogonalPerimeter;" parent="92" vertex="1">
                    <mxGeometry x="48.5" y="80" width="10" height="80" as="geometry"/>
                </mxCell>
                <mxCell id="156" value="" style="html=1;points=[];perimeter=orthogonalPerimeter;" parent="92" vertex="1">
                    <mxGeometry x="48.5" y="170" width="10" height="40" as="geometry"/>
                </mxCell>
                <mxCell id="93" value="cinder-api" style="shape=umlLifeline;perimeter=lifelinePerimeter;whiteSpace=wrap;html=1;container=1;collapsible=0;recursiveResize=0;outlineConnect=0;" parent="1" vertex="1">
                    <mxGeometry x="480" y="820" width="100" height="300" as="geometry"/>
                </mxCell>
                <mxCell id="103" value="" style="html=1;points=[];perimeter=orthogonalPerimeter;" parent="93" vertex="1">
                    <mxGeometry x="45" y="50" width="10" height="40" as="geometry"/>
                </mxCell>
                <mxCell id="98" value="http:GET:networks" style="html=1;verticalAlign=bottom;startArrow=oval;startFill=1;endArrow=block;startSize=8;entryX=0;entryY=0.388;entryDx=0;entryDy=0;entryPerimeter=0;" parent="1" source="91" target="95" edge="1">
                    <mxGeometry width="60" relative="1" as="geometry">
                        <mxPoint x="55" y="-130" as="sourcePoint"/>
                        <mxPoint x="270" y="940" as="targetPoint"/>
                    </mxGeometry>
                </mxCell>
                <mxCell id="101" value="http:GET:subnets" style="html=1;verticalAlign=bottom;startArrow=oval;startFill=1;endArrow=block;startSize=8;entryX=0.1;entryY=0.563;entryDx=0;entryDy=0;entryPerimeter=0;" parent="1" source="91" target="95" edge="1">
                    <mxGeometry width="60" relative="1" as="geometry">
                        <mxPoint y="960" as="sourcePoint"/>
                        <mxPoint x="60" y="960" as="targetPoint"/>
                    </mxGeometry>
                </mxCell>
                <mxCell id="125" value="" style="html=1;verticalAlign=bottom;endArrow=open;dashed=1;endSize=8;" parent="1" source="6" edge="1">
                    <mxGeometry relative="1" as="geometry">
                        <mxPoint x="6" y="320" as="targetPoint"/>
                        <mxPoint x="150" y="232" as="sourcePoint"/>
                    </mxGeometry>
                </mxCell>
                <mxCell id="126" value="rpc:response" style="edgeLabel;html=1;align=center;verticalAlign=middle;resizable=0;points=[];" parent="125" vertex="1" connectable="0">
                    <mxGeometry x="0.4082" y="2" relative="1" as="geometry">
                        <mxPoint x="8.96" y="-13.41" as="offset"/>
                    </mxGeometry>
                </mxCell>
                <mxCell id="128" value="return" style="html=1;verticalAlign=bottom;endArrow=open;dashed=1;endSize=8;entryX=0.1;entryY=0.678;entryDx=0;entryDy=0;entryPerimeter=0;" parent="1" target="23" edge="1">
                    <mxGeometry relative="1" as="geometry">
                        <mxPoint x="500" y="261" as="sourcePoint"/>
                        <mxPoint x="500" y="270" as="targetPoint"/>
                    </mxGeometry>
                </mxCell>
                <mxCell id="129" value="return" style="html=1;verticalAlign=bottom;endArrow=open;dashed=1;endSize=8;" parent="1" target="6" edge="1">
                    <mxGeometry relative="1" as="geometry">
                        <mxPoint x="660" y="280" as="sourcePoint"/>
                        <mxPoint x="580" y="280" as="targetPoint"/>
                    </mxGeometry>
                </mxCell>
                <mxCell id="130" value="rpc:cast:live_migration" style="html=1;verticalAlign=bottom;startArrow=oval;startFill=1;endArrow=block;startSize=8;exitX=1.2;exitY=0.95;exitDx=0;exitDy=0;exitPerimeter=0;" parent="1" source="16" target="29" edge="1">
                    <mxGeometry width="60" relative="1" as="geometry">
                        <mxPoint x="170" y="310" as="sourcePoint"/>
                        <mxPoint x="480" y="311" as="targetPoint"/>
                    </mxGeometry>
                </mxCell>
                <mxCell id="133" value="return" style="html=1;verticalAlign=bottom;endArrow=open;dashed=1;endSize=8;" parent="1" edge="1">
                    <mxGeometry relative="1" as="geometry">
                        <mxPoint x="660" y="340" as="sourcePoint"/>
                        <mxPoint x="490" y="340" as="targetPoint"/>
                    </mxGeometry>
                </mxCell>
                <mxCell id="135" value="rpc:cast:post_live_migration_at_destination" style="html=1;verticalAlign=bottom;startArrow=oval;startFill=1;endArrow=block;startSize=8;" parent="1" target="134" edge="1">
                    <mxGeometry width="60" relative="1" as="geometry">
                        <mxPoint x="500" y="375" as="sourcePoint"/>
                        <mxPoint x="560" y="360" as="targetPoint"/>
                    </mxGeometry>
                </mxCell>
                <mxCell id="141" value="rpc:call:rollback_live_migration_at_destination" style="html=1;verticalAlign=bottom;startArrow=oval;startFill=1;endArrow=block;startSize=8;exitX=1.1;exitY=0.894;exitDx=0;exitDy=0;exitPerimeter=0;" parent="1" source="29" target="12" edge="1">
                    <mxGeometry width="60" relative="1" as="geometry">
                        <mxPoint x="510" y="430" as="sourcePoint"/>
                        <mxPoint x="679.5" y="430" as="targetPoint"/>
                    </mxGeometry>
                </mxCell>
                <mxCell id="146" value="rollback" style="text;html=1;strokeColor=none;fillColor=none;align=center;verticalAlign=middle;whiteSpace=wrap;rounded=0;" parent="1" vertex="1">
                    <mxGeometry x="730" y="410" width="40" height="20" as="geometry"/>
                </mxCell>
                <mxCell id="149" value="http:live_migrate_force_compelete" style="html=1;verticalAlign=bottom;endArrow=block;entryX=-0.2;entryY=0.183;entryDx=0;entryDy=0;entryPerimeter=0;" parent="1" target="64" edge="1">
                    <mxGeometry relative="1" as="geometry">
                        <mxPoint x="-80" y="520" as="sourcePoint"/>
                        <mxPoint x="5" y="140.0000000000001" as="targetPoint"/>
                        <Array as="points"/>
                    </mxGeometry>
                </mxCell>
                <mxCell id="155" value="goto rollback live migration" style="html=1;verticalAlign=bottom;startArrow=oval;startFill=1;endArrow=block;startSize=8;entryX=0;entryY=0.25;entryDx=0;entryDy=0;" parent="1" source="11" target="144" edge="1">
                    <mxGeometry x="-0.2221" width="60" relative="1" as="geometry">
                        <mxPoint x="497" y="560" as="sourcePoint"/>
                        <mxPoint x="440" y="420" as="targetPoint"/>
                        <Array as="points">
                            <mxPoint x="410" y="640"/>
                            <mxPoint x="410" y="560"/>
                            <mxPoint x="410" y="425"/>
                        </Array>
                        <mxPoint as="offset"/>
                    </mxGeometry>
                </mxCell>
                <mxCell id="104" value="http:POST:initialize_connection" style="html=1;verticalAlign=bottom;startArrow=oval;startFill=1;endArrow=block;startSize=8;exitX=0.5;exitY=0.063;exitDx=0;exitDy=0;exitPerimeter=0;" parent="1" source="94" target="93" edge="1">
                    <mxGeometry width="60" relative="1" as="geometry">
                        <mxPoint y="1010" as="sourcePoint"/>
                        <mxPoint x="60" y="1010" as="targetPoint"/>
                    </mxGeometry>
                </mxCell>
                <mxCell id="159" value="http:PUT:ports&lt;br&gt;{migrate_to:destination_host}" style="html=1;verticalAlign=bottom;startArrow=oval;startFill=1;endArrow=block;startSize=8;" parent="1" target="156" edge="1">
                    <mxGeometry width="60" relative="1" as="geometry">
                        <mxPoint y="1010" as="sourcePoint"/>
                        <mxPoint x="60" y="1000" as="targetPoint"/>
                    </mxGeometry>
                </mxCell>
                <mxCell id="162" value="nova-compute&lt;br&gt;destination" style="shape=umlLifeline;perimeter=lifelinePerimeter;whiteSpace=wrap;html=1;container=1;collapsible=0;recursiveResize=0;outlineConnect=0;" parent="1" vertex="1">
                    <mxGeometry x="-50" y="1200" width="100" height="300" as="geometry"/>
                </mxCell>
                <mxCell id="163" value="8" style="html=1;points=[];perimeter=orthogonalPerimeter;" parent="162" vertex="1">
                    <mxGeometry x="45" y="50" width="10" height="210" as="geometry"/>
                </mxCell>
                <mxCell id="166" value="neutron-server" style="shape=umlLifeline;perimeter=lifelinePerimeter;whiteSpace=wrap;html=1;container=1;collapsible=0;recursiveResize=0;outlineConnect=0;" parent="1" vertex="1">
                    <mxGeometry x="230" y="1200" width="107" height="300" as="geometry"/>
                </mxCell>
                <mxCell id="167" value="" style="html=1;points=[];perimeter=orthogonalPerimeter;" parent="166" vertex="1">
                    <mxGeometry x="48.5" y="160" width="10" height="80" as="geometry"/>
                </mxCell>
                <mxCell id="168" value="" style="html=1;points=[];perimeter=orthogonalPerimeter;" parent="166" vertex="1">
                    <mxGeometry x="48.5" y="50" width="10" height="40" as="geometry"/>
                </mxCell>
                <mxCell id="176" value="" style="html=1;points=[];perimeter=orthogonalPerimeter;" parent="166" vertex="1">
                    <mxGeometry x="48.5" y="100" width="10" height="40" as="geometry"/>
                </mxCell>
                <mxCell id="169" value="cinder-api" style="shape=umlLifeline;perimeter=lifelinePerimeter;whiteSpace=wrap;html=1;container=1;collapsible=0;recursiveResize=0;outlineConnect=0;" parent="1" vertex="1">
                    <mxGeometry x="480" y="1200" width="100" height="300" as="geometry"/>
                </mxCell>
                <mxCell id="170" value="" style="html=1;points=[];perimeter=orthogonalPerimeter;" parent="169" vertex="1">
                    <mxGeometry x="45" y="50" width="10" height="40" as="geometry"/>
                </mxCell>
                <mxCell id="171" value="http:GET:networks" style="html=1;verticalAlign=bottom;startArrow=oval;startFill=1;endArrow=block;startSize=8;exitX=0.45;exitY=0.762;exitDx=0;exitDy=0;exitPerimeter=0;" parent="1" source="163" target="167" edge="1">
                    <mxGeometry width="60" relative="1" as="geometry">
                        <mxPoint x="55" y="250" as="sourcePoint"/>
                        <mxPoint x="270" y="1320" as="targetPoint"/>
                    </mxGeometry>
                </mxCell>
                <mxCell id="172" value="http:GET:subnets" style="html=1;verticalAlign=bottom;startArrow=oval;startFill=1;endArrow=block;startSize=8;entryX=-0.05;entryY=0.338;entryDx=0;entryDy=0;entryPerimeter=0;" parent="1" source="162" target="167" edge="1">
                    <mxGeometry width="60" relative="1" as="geometry">
                        <mxPoint y="1360" as="sourcePoint"/>
                        <mxPoint x="60" y="1340" as="targetPoint"/>
                    </mxGeometry>
                </mxCell>
                <mxCell id="174" value="http:PUT:ports&lt;br&gt;{migrate_to:destination_host}" style="html=1;verticalAlign=bottom;startArrow=oval;startFill=1;endArrow=block;startSize=8;" parent="1" target="168" edge="1">
                    <mxGeometry width="60" relative="1" as="geometry">
                        <mxPoint y="1290" as="sourcePoint"/>
                        <mxPoint x="60" y="1380" as="targetPoint"/>
                    </mxGeometry>
                </mxCell>
                <mxCell id="164" value="http:GET:ports" style="html=1;verticalAlign=bottom;startArrow=oval;startFill=1;endArrow=block;startSize=8;entryX=0.1;entryY=0.113;entryDx=0;entryDy=0;entryPerimeter=0;exitX=0.5;exitY=0.567;exitDx=0;exitDy=0;exitPerimeter=0;" parent="1" source="163" target="167" edge="1">
                    <mxGeometry width="60" relative="1" as="geometry">
                        <mxPoint y="1319" as="sourcePoint"/>
                        <mxPoint x="60" y="1290" as="targetPoint"/>
                    </mxGeometry>
                </mxCell>
                <mxCell id="165" value="http:GET:dhcp_ports" style="html=1;verticalAlign=bottom;startArrow=oval;startFill=1;endArrow=block;startSize=8;entryX=0.1;entryY=0.875;entryDx=0;entryDy=0;entryPerimeter=0;" parent="1" target="167" edge="1">
                    <mxGeometry width="60" relative="1" as="geometry">
                        <mxPoint y="1430" as="sourcePoint"/>
                        <mxPoint x="60" y="1350" as="targetPoint"/>
                    </mxGeometry>
                </mxCell>
                <mxCell id="175" value="http:GET:ports" style="html=1;verticalAlign=bottom;startArrow=oval;startFill=1;endArrow=block;startSize=8;entryX=0.15;entryY=0.225;entryDx=0;entryDy=0;entryPerimeter=0;" parent="1" target="168" edge="1">
                    <mxGeometry width="60" relative="1" as="geometry">
                        <mxPoint y="1259" as="sourcePoint"/>
                        <mxPoint x="289.5" y="1329.04" as="targetPoint"/>
                    </mxGeometry>
                </mxCell>
                <mxCell id="177" value="http:GET:ports" style="html=1;verticalAlign=bottom;startArrow=oval;startFill=1;endArrow=block;startSize=8;entryX=0.05;entryY=0.15;entryDx=0;entryDy=0;entryPerimeter=0;" parent="1" target="176" edge="1">
                    <mxGeometry width="60" relative="1" as="geometry">
                        <mxPoint y="1306" as="sourcePoint"/>
                        <mxPoint x="290" y="1269" as="targetPoint"/>
                    </mxGeometry>
                </mxCell>
                <mxCell id="178" value="http:PUT:ports&lt;br&gt;{migrate_to:destination_host}" style="html=1;verticalAlign=bottom;startArrow=oval;startFill=1;endArrow=block;startSize=8;entryX=-0.15;entryY=0.875;entryDx=0;entryDy=0;entryPerimeter=0;" parent="1" source="163" target="176" edge="1">
                    <mxGeometry width="60" relative="1" as="geometry">
                        <mxPoint x="10" y="1300" as="sourcePoint"/>
                        <mxPoint x="288.5" y="1300" as="targetPoint"/>
                    </mxGeometry>
                </mxCell>
                <mxCell id="180" value="nova-compute&lt;br&gt;source" style="shape=umlLifeline;perimeter=lifelinePerimeter;whiteSpace=wrap;html=1;container=1;collapsible=0;recursiveResize=0;outlineConnect=0;" parent="1" vertex="1">
                    <mxGeometry x="-50" y="1540" width="100" height="300" as="geometry"/>
                </mxCell>
                <mxCell id="181" value="6" style="html=1;points=[];perimeter=orthogonalPerimeter;" parent="180" vertex="1">
                    <mxGeometry x="45" y="50" width="10" height="150" as="geometry"/>
                </mxCell>
                <mxCell id="182" value="http:GET:ports" style="html=1;verticalAlign=bottom;startArrow=oval;startFill=1;endArrow=block;startSize=8;entryX=0.1;entryY=0.113;entryDx=0;entryDy=0;entryPerimeter=0;" parent="180" target="185" edge="1">
                    <mxGeometry width="60" relative="1" as="geometry">
                        <mxPoint x="50" y="130" as="sourcePoint"/>
                        <mxPoint x="110" y="130" as="targetPoint"/>
                    </mxGeometry>
                </mxCell>
                <mxCell id="183" value="http:GET:dhcp_ports" style="html=1;verticalAlign=bottom;startArrow=oval;startFill=1;endArrow=block;startSize=8;entryX=0.1;entryY=0.875;entryDx=0;entryDy=0;entryPerimeter=0;" parent="180" target="185" edge="1">
                    <mxGeometry width="60" relative="1" as="geometry">
                        <mxPoint x="50" y="190" as="sourcePoint"/>
                        <mxPoint x="110" y="190" as="targetPoint"/>
                    </mxGeometry>
                </mxCell>
                <mxCell id="184" value="neutron-server" style="shape=umlLifeline;perimeter=lifelinePerimeter;whiteSpace=wrap;html=1;container=1;collapsible=0;recursiveResize=0;outlineConnect=0;" parent="1" vertex="1">
                    <mxGeometry x="230" y="1540" width="107" height="300" as="geometry"/>
                </mxCell>
                <mxCell id="185" value="" style="html=1;points=[];perimeter=orthogonalPerimeter;" parent="184" vertex="1">
                    <mxGeometry x="48.5" y="120" width="10" height="80" as="geometry"/>
                </mxCell>
                <mxCell id="187" value="cinder-api" style="shape=umlLifeline;perimeter=lifelinePerimeter;whiteSpace=wrap;html=1;container=1;collapsible=0;recursiveResize=0;outlineConnect=0;" parent="1" vertex="1">
                    <mxGeometry x="480" y="1540" width="100" height="300" as="geometry"/>
                </mxCell>
                <mxCell id="188" value="" style="html=1;points=[];perimeter=orthogonalPerimeter;" parent="187" vertex="1">
                    <mxGeometry x="45" y="50" width="10" height="40" as="geometry"/>
                </mxCell>
                <mxCell id="189" value="http:GET:networks" style="html=1;verticalAlign=bottom;startArrow=oval;startFill=1;endArrow=block;startSize=8;entryX=0;entryY=0.388;entryDx=0;entryDy=0;entryPerimeter=0;" parent="1" target="185" edge="1">
                    <mxGeometry width="60" relative="1" as="geometry">
                        <mxPoint x="-0.5" y="1691.04" as="sourcePoint"/>
                        <mxPoint x="270" y="1700" as="targetPoint"/>
                    </mxGeometry>
                </mxCell>
                <mxCell id="190" value="http:GET:subnets" style="html=1;verticalAlign=bottom;startArrow=oval;startFill=1;endArrow=block;startSize=8;entryX=0.1;entryY=0.563;entryDx=0;entryDy=0;entryPerimeter=0;" parent="1" target="185" edge="1">
                    <mxGeometry width="60" relative="1" as="geometry">
                        <mxPoint x="-0.5" y="1705.04" as="sourcePoint"/>
                        <mxPoint x="60" y="1720" as="targetPoint"/>
                    </mxGeometry>
                </mxCell>
                <mxCell id="191" value="http:POST:initialize_connection" style="html=1;verticalAlign=bottom;startArrow=oval;startFill=1;endArrow=block;startSize=8;exitX=0.5;exitY=0.063;exitDx=0;exitDy=0;exitPerimeter=0;" parent="1" source="181" target="187" edge="1">
                    <mxGeometry width="60" relative="1" as="geometry">
                        <mxPoint y="1730" as="sourcePoint"/>
                        <mxPoint x="60" y="1730" as="targetPoint"/>
                    </mxGeometry>
                </mxCell>
                <mxCell id="193" value="http:POST:terminate_connection" style="html=1;verticalAlign=bottom;startArrow=oval;startFill=1;endArrow=block;startSize=8;" parent="1" edge="1">
                    <mxGeometry width="60" relative="1" as="geometry">
                        <mxPoint y="1620" as="sourcePoint"/>
                        <mxPoint x="530" y="1620" as="targetPoint"/>
                    </mxGeometry>
                </mxCell>
            </root>
        </mxGraphModel>
    </diagram>
</mxfile>